<?xml version="1.0" encoding="utf-8"?>
<svg xmlns="http://www.w3.org/2000/svg" width="16" height="16" viewBox="0 0 16 16" fill="none">
  <path fill-rule="evenodd" clip-rule="evenodd" d="M 6 1 L 10 1 L 10 4.186 L 10.814 5 L 14 5 L 14 12 L 12 12 L 12 13 L 15 13 L 15 3.6 L 11.4 0 L 5 0 L 5 2 L 6 2 L 6 1 Z M 11 1 L 11.31 1 L 14 3.69 L 14 4 L 11 4 L 11 1 Z M 11 6.6 L 7.4 3 L 1 3 L 1 16 L 11 16 L 11 6.6 Z M 10 15 L 2 15 L 2 4 L 6 4 L 6 8 L 10 8 L 10 15 Z M 10 7 L 7 7 L 7 4 L 7.31 4 L 10 6.69 L 10 7 Z M 3 9 L 9 9 L 9 10 L 3 10 L 3 9 Z M 7 12 L 7 13 L 3 13 L 3 12 L 7 12 Z" fill="white"/>
</svg>
