<?xml version="1.0" encoding="utf-8"?>
<svg xmlns="http://www.w3.org/2000/svg" width="16" height="16" viewBox="0 0 16 16" fill="none">
  <path d="M 12.854 4 L 13.857 4 L 13.067 15.071 C 13.048 15.323 12.935 15.559 12.75 15.731 C 12.564 15.904 12.321 15.999 12.068 16 L 3.932 16 C 3.679 15.999 3.436 15.903 3.251 15.731 C 3.066 15.558 2.953 15.322 2.934 15.07 L 2.143 4 L 3.146 4 L 3.932 15 L 12.068 15 L 12.854 4 Z M 1 3 L 1 2 L 5 2 L 5 1 C 5 0.735 5.106 0.481 5.293 0.293 C 5.481 0.106 5.735 0 6 0 L 10 0 C 10.265 0 10.519 0.106 10.707 0.293 C 10.894 0.481 11 0.735 11 1 L 11 2 L 15 2 L 15 3 L 1 3 Z M 6 2 L 10 2 L 10 1 L 6 1 L 6 2 Z M 9.5 13 C 9.633 13 9.76 12.947 9.854 12.854 C 9.947 12.76 10 12.633 10 12.5 L 10 5.5 C 10 5.367 9.947 5.24 9.854 5.146 C 9.76 5.053 9.633 5 9.5 5 C 9.367 5 9.24 5.053 9.146 5.146 C 9.053 5.24 9 5.367 9 5.5 L 9 12.5 C 9 12.633 9.053 12.76 9.146 12.854 C 9.24 12.947 9.367 13 9.5 13 Z M 6.5 13 C 6.633 13 6.76 12.947 6.854 12.854 C 6.947 12.76 7 12.633 7 12.5 L 7 5.5 C 7 5.367 6.947 5.24 6.854 5.146 C 6.76 5.053 6.633 5 6.5 5 C 6.367 5 6.24 5.053 6.146 5.146 C 6.053 5.24 6 5.367 6 5.5 L 6 12.5 C 6 12.633 6.053 12.76 6.146 12.854 C 6.24 12.947 6.367 13 6.5 13 Z" fill="white"/>
</svg>
