<?xml version="1.0" encoding="utf-8"?>
<svg xmlns="http://www.w3.org/2000/svg" width="16" height="16" viewBox="0 0 16 16" fill="none">
  <path fill-rule="evenodd" clip-rule="evenodd" d="M 6.841 11.308 L 5.085 15.405 C 5.025 15.544 5.056 15.706 5.164 15.814 C 5.271 15.921 5.433 15.952 5.573 15.892 L 9.67 14.138 L 15.722 8.086 C 15.905 7.9 16.006 7.648 16 7.387 C 15.994 7.126 15.883 6.878 15.692 6.701 L 14.279 5.287 C 14.101 5.095 13.854 4.984 13.593 4.979 C 13.332 4.973 13.08 5.073 12.894 5.257 L 6.841 11.308 Z M 6.624 14.354 L 7.178 13.06 L 7.918 13.8 L 6.624 14.354 Z M 13.354 6.21 C 13.411 6.152 13.489 6.12 13.57 6.12 C 13.652 6.12 13.729 6.152 13.787 6.21 L 14.768 7.19 C 14.826 7.247 14.858 7.325 14.858 7.407 C 14.858 7.488 14.826 7.566 14.768 7.624 L 13.678 8.714 L 12.264 7.3 L 13.354 6.21 Z M 12.97 9.422 L 8.962 13.43 L 7.549 12.015 L 11.556 8.007 L 12.97 9.422 Z M 1 0.078 L 1 5.078 L 1.889 5.078 L 0 10.809 L 0.807 11.078 L 2.785 5.078 L 6 5.078 L 6 3.078 L 12 3.078 L 12 2.078 L 6 2.078 L 6 0.078 L 1 0.078 Z M 5 4.078 L 2 4.078 L 2 1.078 L 5 1.078 L 5 4.078 Z" fill="white"/>
</svg>
