<?xml version="1.0" encoding="utf-8"?>
<!-- Generator: Adobe Illustrator 27.0.0, SVG Export Plug-In . SVG Version: 6.00 Build 0)  -->
<svg version="1.1" id="Layer_1" xmlns="http://www.w3.org/2000/svg" xmlns:xlink="http://www.w3.org/1999/xlink" x="0px" y="0px"
	 viewBox="0 0 16 16" style="enable-background:new 0 0 16 16;" xml:space="preserve">
<style type="text/css">
	.st0{fill-rule:evenodd;clip-rule:evenodd;fill:#FFFFFF;}
</style>
<path class="st0" d="M8,0C5.6,0,3.7,1.9,3.7,4.3v2.1H2.7c-0.6,0-1.1,0.5-1.1,1.1v7.5c0,0.6,0.5,1.1,1.1,1.1h10.7
	c0.6,0,1.1-0.5,1.1-1.1V7.5c0-0.6-0.5-1.1-1.1-1.1h-1.1V4.3C12.3,1.9,10.4,0,8,0z M4.8,4.3c0-1.8,1.4-3.2,3.2-3.2s3.2,1.4,3.2,3.2
	v2.1h-1.1V4.3c0-1.2-1-2.1-2.1-2.1s-2.1,1-2.1,2.1v2.1H4.8V4.3z M9.1,6.4H6.9V4.3c0-0.6,0.5-1.1,1.1-1.1s1.1,0.5,1.1,1.1V6.4z
	 M13.3,7.5v7.5H2.7V7.5H13.3z"/>
</svg>
