<?xml version="1.0" encoding="utf-8"?>
<!-- Generator: Adobe Illustrator 27.0.0, SVG Export Plug-In . SVG Version: 6.00 Build 0)  -->
<svg version="1.1" id="Layer_1" xmlns="http://www.w3.org/2000/svg" xmlns:xlink="http://www.w3.org/1999/xlink" x="0px" y="0px"
	 viewBox="0 0 16 16" style="enable-background:new 0 0 16 16;" xml:space="preserve">
<style type="text/css">
	.st0{fill-rule:evenodd;clip-rule:evenodd;fill:#FFFFFF;}
</style>
<path class="st0" d="M16,3V0H9v7h7V3z M15,1v1h-3V1H15z M11,1v2h2v1h-3V1H11z M10,6V5h4V3h1v3H10z M7,0H0v7h7V0z M6,4H5.7
	C4.2,4,3,2.8,3,1.3V1h3V4z M1,6V5h0.6C1.8,5,2,5.2,2,5.4V6H1z M3,6V5.4C3,4.6,2.4,4,1.6,4H1V1h1v0.3C2,3.4,3.6,5,5.7,5H6v1H3z M16,9
	H9v7h7V9z M10,15v-3h3v1h-1v1h1v1H10z M15,15h-1v-3h1V15z M15,11h-5v-1h5V11z M7,9H0v7h7V9z M6,10v3.1c-0.1,0-0.2,0-0.3,0.1
	c0,0,0-0.1-0.1-0.1C5.5,12.6,5.3,12.3,5,12c-0.9-0.9-1.2-1.1-2-1.1C2.2,11,1.5,11.4,1,12v-2H6z M1,15v-1.4l0.1-0.1
	c0.4-0.7,1.1-1.3,1.9-1.5c0.4,0,0.5,0,1.3,0.8c0.2,0.2,0.3,0.5,0.4,0.7c0.1,0.3,0.3,0.8,0.8,0.8c0.1,0,0.2,0,0.2,0
	c0,0,0.1,0,0.2-0.1V15H1z"/>
</svg>
