<?xml version="1.0" encoding="utf-8"?>
<!-- Generator: Adobe Illustrator 27.0.0, SVG Export Plug-In . SVG Version: 6.00 Build 0)  -->
<svg version="1.1" id="Layer_1" xmlns="http://www.w3.org/2000/svg" xmlns:xlink="http://www.w3.org/1999/xlink" x="0px" y="0px"
	 viewBox="0 0 16 16" style="enable-background:new 0 0 16 16;" xml:space="preserve">
<style type="text/css">
	.st0{fill-rule:evenodd;clip-rule:evenodd;fill:#FFFFFF;}
</style>
<path class="st0" d="M14.3,4L12,6.3V4.5C12,3.7,11.3,3,10.5,3h-9C0.7,3,0,3.7,0,4.5v7C0,12.3,0.7,13,1.5,13h9c0.8,0,1.5-0.7,1.5-1.5
	V9.7l2.3,2.3H16V4H14.3z M11,11.5c0,0.3-0.2,0.5-0.5,0.5h-9C1.2,12,1,11.8,1,11.5v-7C1,4.2,1.2,4,1.5,4h9C10.8,4,11,4.2,11,4.5V11.5
	z M15,11h-0.3L12,8.3V7.7L14.7,5H15V11z"/>
</svg>
