<?xml version="1.0" encoding="utf-8"?>
<!-- Generator: Adobe Illustrator 27.0.0, SVG Export Plug-In . SVG Version: 6.00 Build 0)  -->
<svg version="1.1" id="Layer_1" xmlns="http://www.w3.org/2000/svg" xmlns:xlink="http://www.w3.org/1999/xlink" x="0px" y="0px"
	 viewBox="0 0 16 16" style="enable-background:new 0 0 16 16;" xml:space="preserve">
<style type="text/css">
	.st0{fill-rule:evenodd;clip-rule:evenodd;fill:#FFFFFF;}
</style>
<path class="st0" d="M16,15v1H0v-1H16z M15,0h-5v1h5V0z M12,3.7v8.5l-1.6-1.6l-0.7,0.7l2.8,2.8l2.8-2.8l-0.7-0.7L13,12.3V3.7
	l1.6,1.6l0.7-0.7l-2.8-2.8L9.7,4.6l0.7,0.7L12,3.7z M6.8,7.7l-2.7,2.7l0.6,0.8l3.7-3.8L11,10V8.6L8.5,6l-1,1l-4-4L0,6.6V8l3.5-3.5
	L6.8,7.7z"/>
</svg>
