<?xml version="1.0" encoding="utf-8"?>
<!-- Generator: Adobe Illustrator 27.0.0, SVG Export Plug-In . SVG Version: 6.00 Build 0)  -->
<svg version="1.1" id="Layer_1" xmlns="http://www.w3.org/2000/svg" xmlns:xlink="http://www.w3.org/1999/xlink" x="0px" y="0px"
	 viewBox="0 0 16 16" style="enable-background:new 0 0 16 16;" xml:space="preserve">
<style type="text/css">
	.st0{fill-rule:evenodd;clip-rule:evenodd;fill:#FFFFFF;}
</style>
<path class="st0" d="M8,5.8c-0.6,0-1.1-0.5-1.1-1.1c0-0.6,0.5-1.1,1.1-1.1c0.6,0,1.1,0.5,1.1,1.1C9.1,5.3,8.6,5.8,8,5.8z M8.5,11.8
	V7.5H7.5v4.4H6.4v1.1h1.1h1.1h1.1v-1.1H8.5z M16,8c0,4.4-3.6,8-8,8c-4.4,0-8-3.6-8-8c0-4.4,3.6-8,8-8C12.4,0,16,3.6,16,8z M14.9,8
	c0-3.8-3.1-6.9-6.9-6.9C4.2,1.1,1.1,4.2,1.1,8c0,3.8,3.1,6.9,6.9,6.9C11.8,14.9,14.9,11.8,14.9,8z"/>
</svg>
