<?xml version="1.0" encoding="utf-8"?>
<!-- Generator: Adobe Illustrator 27.0.0, SVG Export Plug-In . SVG Version: 6.00 Build 0)  -->
<svg version="1.1" id="Layer_1" xmlns="http://www.w3.org/2000/svg" xmlns:xlink="http://www.w3.org/1999/xlink" x="0px" y="0px"
	 viewBox="0 0 16 16" style="enable-background:new 0 0 16 16;" xml:space="preserve">
<style type="text/css">
	.st0{fill-rule:evenodd;clip-rule:evenodd;fill:#FFFFFF;}
</style>
<path class="st0" d="M0,0v16h16V0H0z M10.4,14.9c0,0-0.1-0.3-0.1-0.4c0.5-0.3,0.8-0.9,0.8-1.4c0-0.1,0-0.3-0.1-0.4
	c0.2-0.2,0.3-0.4,0.4-0.7c0,0,0.1,0,0.1,0c0.3,0,0.7-0.1,1-0.3c0,0,0.1,0.1,0.1,0.1c0.5,0.5,1.1,0.7,1.8,0.8h0.5v2.3H10.4z
	 M14.9,11.4h-0.5c-0.4,0-0.8-0.2-1-0.5C13,10.7,13,10,12.6,10c-0.6,0-0.6,0.8-1.1,0.8c-0.3,0-0.4-0.2-0.7-0.2
	c-0.2,0-0.5,0.1-0.5,0.3v0.6c0,0.5-0.6,0.6-0.6,1.1c0,0.2,0.2,0.3,0.2,0.5c0,0.7-1,0.6-1,1.2c0,0.2,0.2,0.3,0.2,0.6v0h-3
	c0.1-0.2,0.1-0.4,0.1-0.6c0-0.6-1.2-0.4-1.4-0.8c-0.5-0.9,0.8-1.2,0.8-1.9c0-0.2-0.1-0.6-0.4-0.6c-0.4,0-0.5,0.2-0.9,0.2
	c-0.3,0-0.5-0.2-0.5-0.4c0-0.4,0.4-0.6,0.4-1.1c0-0.3-0.1-0.4-0.1-0.7c0-0.4,0.3-0.7,0.7-0.7c0.4,0,0.5,0.3,0.7,0.6
	C5.6,9,5.9,9.2,6.2,9.1c0.6,0,0.9-0.7,0.9-1.1c0-0.3,0.2-0.5,0.5-0.6c0.4,0,0.5,0.4,0.9,0.4c0.7,0,0.6-0.9,1.2-1.2
	c0.7-0.4,0.5-1.2,0.4-1.6c0-0.2,0.3-0.6,0.5-0.6c0.8,0.1,0.5-0.6,0.5-0.9c0-0.1,0-0.1,0-0.2c0.1-0.4,0.7-0.5,0.7-1
	c0-0.3-0.3-0.5-0.3-0.8c0-0.2,0.1-0.4,0.3-0.5h3V11.4z M1.1,14.9V1.1h9.5c0,0.1-0.2,0.4-0.2,0.5c0,0.2,0,0.4,0.1,0.6
	c-0.2,0.2-0.4,0.5-0.5,0.7C10,3.2,10,3.4,10,3.5C9.8,3.7,9.6,3.8,9.4,4C9.1,4.4,9,4.8,9,5.3c0,0.2,0.1,0.3,0.1,0.5
	C8.8,5.9,8.6,6.2,8.4,6.5C8.1,6.4,7.9,6.3,7.6,6.3C6.9,6.3,6.2,6.8,6,7.6C5.7,7.2,5.2,7,4.8,7C3.8,7,2.9,7.9,3,8.9
	c0,0.3,0.1,0.3,0.1,0.7c0,0.3-0.3,0.6-0.3,1.2c0,0.7,0.5,1.3,1.1,1.5c-0.3,0.5-0.3,1.2,0,1.8c0.2,0.3,0.7,0.9,0.6,0.9H1.1z"/>
</svg>
