<?xml version="1.0" encoding="utf-8"?>
<!-- Generator: Adobe Illustrator 27.0.0, SVG Export Plug-In . SVG Version: 6.00 Build 0)  -->
<svg version="1.1" id="Layer_1" xmlns="http://www.w3.org/2000/svg" xmlns:xlink="http://www.w3.org/1999/xlink" x="0px" y="0px"
	 viewBox="0 0 16 16" style="enable-background:new 0 0 16 16;" xml:space="preserve">
<style type="text/css">
	.st0{fill-rule:evenodd;clip-rule:evenodd;fill:#FFFFFF;}
</style>
<path class="st0" d="M2.5,5.3l-1-2.1l1.6-1.7l2.1,1C5.5,2.4,5.8,2.3,6,2.2L6.8,0l2.3,0l0.8,2.2c0.3,0.1,0.5,0.2,0.8,0.3l2.1-1
	l1.7,1.6l-1,2.1c0.1,0.2,0.2,0.5,0.3,0.8L16,6.8l0,2.3l-2.2,0.8c-0.1,0.3-0.2,0.5-0.3,0.8l1,2.1l-1.6,1.7l-2.1-1
	c-0.2,0.1-0.5,0.2-0.8,0.3L9.2,16l-2.3,0l-0.8-2.2c-0.3-0.1-0.5-0.2-0.8-0.3l-2.1,1l-1.7-1.6l1-2.1c-0.1-0.2-0.2-0.5-0.3-0.8L0,9.2
	l0-2.3l2.2-0.8C2.3,5.8,2.4,5.5,2.5,5.3L2.5,5.3z M7.6,15l0.9,0l0.7-2l0.5-0.2c0.2-0.1,0.4-0.2,0.6-0.3l0.4-0.2l1.9,0.9l0.7-0.7
	l-0.9-1.9l0.2-0.4c0.1-0.2,0.2-0.4,0.3-0.6L13,9.2l2-0.7l0-0.9l-2-0.7l-0.2-0.5c-0.1-0.2-0.2-0.4-0.3-0.6l-0.2-0.4l0.9-1.9l-0.7-0.7
	l-1.9,0.9l-0.4-0.2c-0.2-0.1-0.4-0.2-0.6-0.3L9.2,3L8.4,1L7.5,1L6.8,3L6.3,3.1C6.1,3.2,5.9,3.3,5.7,3.4L5.3,3.6L3.4,2.7L2.7,3.4
	l0.9,1.9L3.4,5.7C3.3,5.9,3.2,6.2,3.1,6.4L3,6.8L1,7.6l0,0.9l2,0.7l0.2,0.5c0.1,0.2,0.2,0.4,0.3,0.6l0.2,0.4l-0.9,1.9l0.7,0.7
	l1.9-0.9l0.4,0.2c0.2,0.1,0.4,0.2,0.6,0.3L6.8,13L7.6,15z M11,8c0,1.7-1.3,3-3,3S5,9.7,5,8s1.3-3,3-3S11,6.3,11,8z M10,8
	c0-1.1-0.9-2-2-2S6,6.9,6,8s0.9,2,2,2C9.1,10,10,9.1,10,8z"/>
</svg>
