<?xml version="1.0" encoding="utf-8"?>
<svg xmlns="http://www.w3.org/2000/svg" width="3" height="14" viewBox="0 0 3 14" fill="none">
<path d="M1.5 3C2.32843 3 3 2.3284 3 1.5C3 0.6716 2.32843 0 1.5 0C0.67157 0 0 0.6716 0 1.5C0 2.3284 0.67157 3 1.5 3Z" fill="#C0C0C0"/>
<path d="M1.5 8.5C2.32843 8.5 3 7.8284 3 7C3 6.1716 2.32843 5.5 1.5 5.5C0.67157 5.5 0 6.1716 0 7C0 7.8284 0.67157 8.5 1.5 8.5Z" fill="#C0C0C0"/>
<path d="M1.5 14C2.32843 14 3 13.3284 3 12.5C3 11.6716 2.32843 11 1.5 11C0.67157 11 0 11.6716 0 12.5C0 13.3284 0.67157 14 1.5 14Z" fill="#C0C0C0"/>
</svg>
